<svg width="36" height="36" viewBox="0 0 36 36" fill="none" xmlns="http://www.w3.org/2000/svg">
<path d="M17.0287 5.83201C16.5247 5.83201 16.0567 5.97601 15.6247 6.26401C14.6887 6.93601 13.8127 7.45201 12.9967 7.81201C12.9007 7.86001 12.8167 7.92001 12.7447 7.99201C12.6727 8.06401 12.6127 8.16001 12.5647 8.28001C12.5407 8.32801 12.5287 8.42401 12.5287 8.56801C12.5287 8.64001 12.5527 8.74801 12.6007 8.89201C12.6247 8.98801 12.6907 9.07801 12.7987 9.16201C12.9067 9.24601 12.9967 9.30001 13.0687 9.32401L13.3927 9.36001L13.5007 9.32401C13.5967 9.30001 13.6687 9.27601 13.7167 9.25201C14.6767 8.77201 15.6247 8.22001 16.5607 7.59601C16.6807 7.50001 16.8367 7.45201 17.0287 7.45201C17.2207 7.45201 17.3767 7.50001 17.4967 7.59601C18.4567 8.26801 19.4407 8.84401 20.4487 9.32401C21.9367 10.02 23.4247 10.452 24.9127 10.62C25.1287 10.668 25.3027 10.758 25.4347 10.89C25.5667 11.022 25.6327 11.196 25.6327 11.412V16.452C25.6327 17.7 25.4287 18.912 25.0207 20.088C24.4687 21.6 23.5807 22.968 22.3567 24.192C22.2607 24.288 22.2007 24.372 22.1767 24.444L22.1407 24.516C22.1167 24.612 22.1047 24.69 22.1047 24.75C22.1047 24.81 22.1287 24.912 22.1767 25.056C22.2007 25.128 22.2547 25.206 22.3387 25.29C22.4227 25.374 22.5247 25.44 22.6447 25.488C22.7647 25.536 22.8607 25.56 22.9327 25.56C23.0047 25.56 23.1127 25.536 23.2567 25.488C23.3287 25.464 23.4127 25.404 23.5087 25.308C24.8767 23.94 25.8847 22.38 26.5327 20.628C27.0127 19.284 27.2527 17.892 27.2527 16.452V11.412C27.2527 10.812 27.0487 10.284 26.6407 9.82801C26.2327 9.37201 25.7287 9.10801 25.1287 9.03601H25.0927C23.7967 8.86801 22.4767 8.47201 21.1327 7.84801C20.1967 7.41601 19.2967 6.88801 18.4327 6.26401C18.0007 5.97601 17.5327 5.83201 17.0287 5.83201ZM10.7647 8.71201C10.6927 8.71201 10.6207 8.71201 10.5487 8.71201C9.99669 8.85601 9.46869 8.96401 8.96469 9.03601H8.92869C8.32869 9.10801 7.82469 9.37201 7.41669 9.82801C7.00869 10.284 6.80469 10.812 6.80469 11.412V16.452C6.80469 17.82 7.03269 19.164 7.48869 20.484C8.06469 22.116 8.97669 23.604 10.2247 24.948C11.7367 26.556 13.6687 27.9 16.0207 28.98H16.0567C16.6327 29.244 17.2687 29.256 17.9647 29.016L18.0367 28.98C18.9727 28.572 19.7887 28.14 20.4847 27.684C20.5567 27.636 20.6407 27.564 20.7367 27.468L20.7727 27.36C20.8207 27.288 20.8507 27.222 20.8627 27.162C20.8747 27.102 20.8807 27 20.8807 26.856C20.8567 26.76 20.8147 26.658 20.7547 26.55C20.6947 26.442 20.6287 26.37 20.5567 26.334C20.4847 26.298 20.3767 26.256 20.2327 26.208C20.1607 26.16 20.0647 26.148 19.9447 26.172C19.8247 26.196 19.7287 26.244 19.6567 26.316C18.9847 26.748 18.2287 27.144 17.3887 27.504C17.2687 27.552 17.1427 27.576 17.0107 27.576C16.8787 27.576 16.7767 27.552 16.7047 27.504C13.5367 26.088 11.2687 24.216 9.90069 21.888C8.91669 20.256 8.42469 18.444 8.42469 16.452V11.412C8.42469 11.196 8.49069 11.022 8.62269 10.89C8.75469 10.758 8.92869 10.668 9.14469 10.62C9.81669 10.548 10.4167 10.428 10.9447 10.26C11.1607 10.212 11.3227 10.104 11.4307 9.93601C11.5387 9.76801 11.5747 9.58201 11.5387 9.37801C11.5027 9.17401 11.4067 9.01201 11.2507 8.89201C11.0947 8.77201 10.9327 8.71201 10.7647 8.71201ZM21.0607 14.004C20.7967 14.052 20.6047 14.136 20.4847 14.256L15.6967 19.044L13.5727 16.92C13.5487 16.896 13.4887 16.86 13.3927 16.812L13.2847 16.74C13.2367 16.716 13.1407 16.704 12.9967 16.704C12.9247 16.68 12.8167 16.692 12.6727 16.74C12.6007 16.764 12.5227 16.818 12.4387 16.902C12.3547 16.986 12.2887 17.088 12.2407 17.208C12.1927 17.328 12.1687 17.424 12.1687 17.496C12.1687 17.568 12.1927 17.664 12.2407 17.784C12.2887 17.904 12.3487 18 12.4207 18.072L15.1207 20.736C15.2887 20.904 15.4687 20.988 15.6607 20.988C15.8527 20.988 16.0567 20.904 16.2727 20.736L21.6367 15.408C21.7567 15.264 21.8347 15.114 21.8707 14.958C21.9067 14.802 21.8827 14.646 21.7987 14.49C21.7147 14.334 21.6187 14.214 21.5107 14.13C21.4027 14.046 21.2527 14.004 21.0607 14.004Z" fill="white"/>
</svg>
