<svg width="71" height="45" viewBox="0 0 71 45" fill="none" xmlns="http://www.w3.org/2000/svg">
<path d="M35.4222 0C35.1222 0 34.8597 0.112499 34.6347 0.337498C34.4097 0.5625 34.2972 0.824997 34.2972 1.125C34.2972 1.425 34.4097 1.6875 34.6347 1.9125C34.8597 2.1375 35.1222 2.25 35.4222 2.25C38.7522 2.25 41.8572 3.09 44.7372 4.77C47.5272 6.39 49.7322 8.595 51.3522 11.385C53.0322 14.235 53.8722 17.325 53.8722 20.655C53.8722 20.955 53.9847 21.2175 54.2097 21.4425C54.4347 21.6675 54.6972 21.78 54.9972 21.78H58.0122C59.8722 21.78 61.5822 22.2375 63.1422 23.1525C64.7022 24.0675 65.9397 25.2975 66.8547 26.8425C67.7697 28.3875 68.2272 30.09 68.2272 31.95C68.2272 33 68.0622 34.02 67.7322 35.01C67.6422 35.31 67.6722 35.6025 67.8222 35.8875C67.9722 36.1725 68.1972 36.36 68.4972 36.45C68.7972 36.54 69.0822 36.51 69.3522 36.36C69.6222 36.21 69.8022 35.985 69.8922 35.685C70.2822 34.425 70.4772 33.18 70.4772 31.95C70.4772 29.7 69.9147 27.6225 68.7897 25.7175C67.6647 23.8125 66.1722 22.32 64.3122 21.24C62.3622 20.1 60.2622 19.53 58.0122 19.53H55.9872C55.8072 15.96 54.7572 12.66 52.8372 9.63C50.9772 6.69 48.5322 4.365 45.5022 2.655C42.3822 0.884998 39.0222 0 35.4222 0ZM22.0572 5.04C21.8772 5.1 21.7122 5.19 21.5622 5.31C19.5822 7.11 18.0072 9.2325 16.8372 11.6775C15.6672 14.1225 15.0072 16.74 14.8572 19.53H12.8322C10.5822 19.53 8.48219 20.1 6.53219 21.24C4.67219 22.32 3.17969 23.8125 2.05469 25.7175C0.929688 27.6225 0.367188 29.7 0.367188 31.95C0.367188 34.2 0.929688 36.2775 2.05469 38.1825C3.17969 40.0875 4.69469 41.6025 6.59969 42.7275C8.50469 43.8525 10.5822 44.415 12.8322 44.415H45.2772C45.5772 44.415 45.8397 44.3025 46.0647 44.0775C46.2897 43.8525 46.4022 43.59 46.4022 43.29C46.4022 42.99 46.2897 42.7275 46.0647 42.5025C45.8397 42.2775 45.5772 42.165 45.2772 42.165H12.8322C10.9722 42.165 9.26219 41.7075 7.70219 40.7925C6.14219 39.8775 4.90469 38.64 3.98969 37.08C3.07469 35.52 2.61719 33.81 2.61719 31.95C2.61719 30.09 3.07469 28.3875 3.98969 26.8425C4.90469 25.2975 6.14219 24.0675 7.70219 23.1525C9.26219 22.2375 10.9722 21.78 12.8322 21.78H15.8472C16.1472 21.78 16.4097 21.6675 16.6347 21.4425C16.8597 21.2175 16.9722 20.955 16.9722 20.655C16.9722 18.015 17.5122 15.495 18.5922 13.095C19.6722 10.755 21.1572 8.73 23.0472 7.02C23.2872 6.81 23.4147 6.5475 23.4297 6.2325C23.4447 5.9175 23.3472 5.64 23.1372 5.4C22.8372 5.07 22.4772 4.95 22.0572 5.04ZM34.8822 13.5C33.4722 13.5 32.1672 13.95 30.9672 14.85C29.7672 15.75 28.8072 16.95 28.0872 18.45C27.3672 20.04 27.0072 21.765 27.0072 23.625C27.0072 25.485 27.3672 27.21 28.0872 28.8C28.8072 30.3 29.7672 31.5 30.9672 32.4C32.1672 33.3 33.4722 33.75 34.8822 33.75C36.2922 33.75 37.5972 33.3 38.7972 32.4C39.9972 31.5 40.9572 30.3 41.6772 28.8C42.3972 27.21 42.7572 25.485 42.7572 23.625C42.7572 21.765 42.3972 20.04 41.6772 18.45C40.9572 16.95 39.9972 15.75 38.7972 14.85C37.5972 13.95 36.2922 13.5 34.8822 13.5ZM34.8822 15.75C35.7822 15.75 36.6672 16.08 37.5372 16.74C38.4072 17.4 39.1122 18.315 39.6522 19.485C40.2222 20.715 40.5072 22.095 40.5072 23.625C40.5072 25.155 40.2222 26.535 39.6522 27.765C39.1122 28.935 38.4072 29.85 37.5372 30.51C36.6672 31.17 35.7822 31.5 34.8822 31.5C33.9822 31.5 33.0972 31.17 32.2272 30.51C31.3572 29.85 30.6522 28.935 30.1122 27.765C29.5422 26.535 29.2572 25.155 29.2572 23.625C29.2572 22.095 29.5422 20.715 30.1122 19.485C30.6522 18.315 31.3572 17.4 32.2272 16.74C33.0972 16.08 33.9822 15.75 34.8822 15.75ZM57.0672 32.22C55.7772 32.22 54.7797 32.5425 54.0747 33.1875C53.3697 33.8325 53.0172 34.725 53.0172 35.865C53.0172 36.195 53.0622 36.525 53.1522 36.855L54.7722 37.035C54.6822 36.525 54.6372 36.135 54.6372 35.865C54.6372 35.205 54.8472 34.665 55.2672 34.245C55.6872 33.825 56.2497 33.615 56.9547 33.615C57.6597 33.615 58.2222 33.825 58.6422 34.245C59.0622 34.665 59.2722 35.25 59.2722 36C59.2722 36.75 59.1147 37.4325 58.7997 38.0475C58.4847 38.6625 57.9222 39.345 57.1122 40.095C55.7322 41.445 54.3222 42.63 52.8822 43.65V45H61.0722V43.56H55.0422C56.2122 42.75 57.2472 41.925 58.1472 41.085C59.1372 40.155 59.8497 39.2925 60.2847 38.4975C60.7197 37.7025 60.9372 36.87 60.9372 36C60.9372 34.74 60.5997 33.795 59.9247 33.165C59.2497 32.535 58.2972 32.22 57.0672 32.22Z" fill="white"/>
</svg>
