<svg width="18" height="18" viewBox="0 0 18 18" fill="none" xmlns="http://www.w3.org/2000/svg">
<path d="M17.2498 7.27539C17.2498 6.22539 17.0248 5.10039 16.5748 4.20039C16.2748 3.82539 15.8248 3.52539 15.2998 3.45039C13.1998 3.22539 11.0998 3.15039 8.99981 3.22539C6.89981 3.22539 4.7998 3.30039 2.7748 3.45039C2.3248 3.52539 1.9498 3.67539 1.6498 3.97539C0.974805 4.57539 0.899805 5.70039 0.824805 6.52539C0.749805 8.17539 0.749805 9.75039 0.824805 11.4004C0.824805 11.9254 0.899805 12.3754 1.0498 12.9004C1.1248 13.2754 1.3498 13.6504 1.5748 13.9504C1.8748 14.2504 2.2498 14.4754 2.6998 14.5504C4.3498 14.7754 5.92481 14.8504 7.57481 14.7754C10.1998 14.7754 12.5248 14.7754 15.2248 14.5504C15.6748 14.4754 16.0498 14.2504 16.3498 13.9504C16.5748 13.7254 16.7248 13.5004 16.7998 13.2004C17.0998 12.3754 17.1748 11.5504 17.1748 10.6504C17.2498 10.2754 17.2498 7.72539 17.2498 7.27539ZM7.27481 11.1754V6.52539L11.6998 8.85039C10.4998 9.52539 8.8498 10.2754 7.27481 11.1754Z" fill="#3A5A4D"/>
</svg>
