<svg width="19" height="19" viewBox="0 0 19 19" fill="none" xmlns="http://www.w3.org/2000/svg">
<path d="M0.593332 9.50021C0.593332 9.41362 0.621163 9.34249 0.676827 9.28683C0.73249 9.23117 0.797431 9.20333 0.871649 9.20333H18.1088C18.1954 9.20333 18.2634 9.23117 18.3129 9.28683C18.3623 9.34249 18.3871 9.41362 18.3871 9.50021C18.3871 9.58679 18.3593 9.65792 18.3036 9.71358C18.2479 9.76925 18.183 9.79708 18.1088 9.79708H0.871649C0.797431 9.79708 0.73249 9.76925 0.676827 9.71358C0.621163 9.65792 0.593332 9.58679 0.593332 9.50021ZM11.2065 16.5509C11.1446 16.4891 11.1137 16.4148 11.1137 16.3283C11.1137 16.2417 11.1446 16.1736 11.2065 16.1242L17.7006 9.50021L11.2065 2.89481C11.1446 2.83296 11.1137 2.75874 11.1137 2.67216C11.1137 2.58557 11.1446 2.51754 11.2065 2.46806C11.256 2.40621 11.3209 2.37528 11.4013 2.37528C11.4817 2.37528 11.5528 2.40621 11.6147 2.46806L18.3314 9.29611C18.3438 9.32085 18.3593 9.35177 18.3778 9.38888C18.3964 9.42599 18.4056 9.4631 18.4056 9.50021C18.4056 9.53732 18.3964 9.57442 18.3778 9.61153C18.3593 9.64864 18.3438 9.68575 18.3314 9.72286L11.6147 16.5509C11.59 16.5757 11.559 16.5942 11.5219 16.6066C11.4848 16.6189 11.4477 16.6251 11.4106 16.6251C11.3735 16.6251 11.3364 16.6189 11.2993 16.6066C11.2622 16.5942 11.2312 16.5757 11.2065 16.5509Z" fill="#3A5A4D"/>
</svg>
