<svg width="60" height="60" viewBox="0 0 60 60" fill="none" xmlns="http://www.w3.org/2000/svg">
<g clip-path="url(#clip0_1_260)">
<g clip-path="url(#clip1_1_260)">
<g clip-path="url(#clip2_1_260)">
<path d="M30 60C46.5685 60 60 46.5685 60 30C60 13.4315 46.5685 0 30 0C13.4315 0 0 13.4315 0 30C0 46.5685 13.4315 60 30 60Z" fill="white"/>
<path d="M32.1331 37.942C28.1908 35.9221 24.959 32.7042 22.953 28.7619L26.5362 26.0897C26.8557 25.8514 27.0032 25.4462 26.9116 25.0583L25.4055 18.6803C25.299 18.229 24.8961 17.9102 24.4323 17.9102H19.3033C18.5371 17.9102 17.9102 18.537 17.9102 19.3032C17.9102 32.3838 28.5112 42.9848 41.5918 42.9848C42.358 42.9848 42.9849 42.3579 42.9849 41.5918V36.4613C42.9849 35.9982 42.6669 35.5957 42.2163 35.4885L35.8388 33.9711C35.4499 33.8786 35.0432 34.0266 34.8048 34.3474L32.1331 37.942Z" fill="#3A5A4D"/>
</g>
</g>
</g>
<defs>
<clipPath id="clip0_1_260">
<rect width="60" height="60" fill="white"/>
</clipPath>
<clipPath id="clip1_1_260">
<rect width="60" height="60" fill="white"/>
</clipPath>
<clipPath id="clip2_1_260">
<rect width="60" height="60" fill="white"/>
</clipPath>
</defs>
</svg>
