<svg width="20" height="19" viewBox="0 0 20 19" fill="none" xmlns="http://www.w3.org/2000/svg">
<path d="M9.60501 0C8.36368 0 7.17301 0.234333 6.03301 0.703001C4.84234 1.17167 3.79101 1.862 2.87901 2.774C1.87834 3.77467 1.13734 4.93367 0.65601 6.251C0.187343 7.543 0.0100098 8.87933 0.12401 10.26C0.23801 11.6407 0.643343 12.939 1.34001 14.155L0.0100098 19L5.06401 17.67C6.50801 18.43 8.00268 18.81 9.54801 18.81C10.84 18.81 12.075 18.563 13.253 18.069C14.3803 17.6003 15.381 16.9353 16.255 16.074C17.129 15.2127 17.8003 14.2183 18.269 13.091C18.763 11.9257 19.01 10.7033 19.01 9.424C19.0607 8.208 18.8453 7.01733 18.364 5.852C17.8953 4.72467 17.2177 3.69867 16.331 2.774C15.419 1.862 14.3677 1.17167 13.177 0.703001C12.037 0.234333 10.8463 0 9.60501 0ZM9.51001 1.558C10.8527 1.54533 12.1193 1.862 13.31 2.508C14.5133 3.154 15.4887 4.066 16.236 5.244C16.996 6.46 17.395 7.77733 17.433 9.196C17.4837 10.564 17.1923 11.8497 16.559 13.053C15.9003 14.307 14.963 15.3077 13.747 16.055C12.4043 16.8783 11.0047 17.29 9.54801 17.29C8.19268 17.29 6.85634 16.9417 5.53901 16.245L5.25401 16.055L2.30901 16.815L3.06901 13.965L2.87901 13.68C2.11901 12.4387 1.72634 11.115 1.70101 9.709C1.66301 8.32833 1.96701 7.03 2.61301 5.814C3.27168 4.57267 4.22168 3.55933 5.46301 2.774C6.70434 1.98867 8.05334 1.58333 9.51001 1.558ZM6.22301 5.054C6.13434 5.054 6.02668 5.092 5.90001 5.168C5.79868 5.21867 5.71001 5.27567 5.63401 5.339C5.06401 5.909 4.77901 6.574 4.77901 7.334C4.88034 8.27133 5.19701 9.09467 5.72901 9.804C6.86901 11.4127 8.20534 12.578 9.73801 13.3L10.099 13.452C10.517 13.6167 10.8463 13.7243 11.087 13.775C11.315 13.8637 11.5557 13.9143 11.809 13.927C12.037 13.9397 12.3062 13.9207 12.6165 13.87C12.9268 13.8193 13.2277 13.6863 13.519 13.471C13.785 13.281 14.0257 13.034 14.241 12.73C14.4057 12.388 14.4373 12.008 14.336 11.59L12.322 10.64C12.094 10.5513 11.904 10.583 11.752 10.735C11.6887 10.7983 11.562 10.9567 11.372 11.21C11.182 11.4633 11.0553 11.6217 10.992 11.685C10.9413 11.7737 10.8748 11.8243 10.7925 11.837C10.7102 11.8497 10.6183 11.8307 10.517 11.78C9.75701 11.4507 9.11734 11.0707 8.59801 10.64C8.10401 10.1713 7.66068 9.63933 7.26801 9.044C7.23001 8.95533 7.22368 8.86667 7.24901 8.778C7.27434 8.68933 7.31234 8.61967 7.36301 8.569L7.45801 8.455C7.55934 8.31567 7.65434 8.227 7.74301 8.189C7.79368 8.13833 7.83801 8.075 7.87601 7.999C7.91401 7.923 7.93301 7.85967 7.93301 7.809C7.98368 7.75833 8.00901 7.695 8.00901 7.619C8.00901 7.543 7.98684 7.48283 7.94251 7.4385C7.89818 7.39417 7.78101 7.15033 7.59101 6.707C7.45168 6.37767 7.31234 6.04833 7.17301 5.719C7.13501 5.42767 7.06534 5.23133 6.96401 5.13C6.91334 5.07933 6.82468 5.054 6.69801 5.054H6.22301Z" fill="white"/>
</svg>
