<svg width="38" height="38" viewBox="0 0 38 38" fill="none" xmlns="http://www.w3.org/2000/svg">
<g clip-path="url(#clip0_1_67)">
<path d="M19 38C29.4934 38 38 29.4934 38 19C38 8.50659 29.4934 0 19 0C8.50659 0 0 8.50659 0 19C0 29.4934 8.50659 38 19 38Z" fill="#F180B9"/>
<path d="M22.9 28C21.4833 28 20.2792 27.5042 19.2875 26.5125C18.2958 25.5208 17.8 24.3167 17.8 22.9C17.8 21.4833 18.2958 20.2792 19.2875 19.2875C20.2792 18.2958 21.4833 17.8 22.9 17.8C24.3167 17.8 25.5208 18.2958 26.5125 19.2875C27.5042 20.2792 28 21.4833 28 22.9C28 24.3167 27.5042 25.5208 26.5125 26.5125C25.5208 27.5042 24.3167 28 22.9 28ZM22.9 26.3C23.835 26.3 24.6354 25.9671 25.3013 25.3013C25.9671 24.6354 26.3 23.835 26.3 22.9C26.3 21.965 25.9671 21.1646 25.3013 20.4987C24.6354 19.8329 23.835 19.5 22.9 19.5C21.965 19.5 21.1646 19.8329 20.4987 20.4987C19.8329 21.1646 19.5 21.965 19.5 22.9C19.5 23.835 19.8329 24.6354 20.4987 25.3013C21.1646 25.9671 21.965 26.3 22.9 26.3ZM12.7 26.3C12.2325 26.3 11.8323 26.1335 11.4994 25.8006C11.1665 25.4677 11 25.0675 11 24.6V18.14C11 18.0267 11.0106 17.9133 11.0319 17.8C11.0531 17.6867 11.085 17.5733 11.1275 17.46L12.8275 13.55H12.7C12.4592 13.55 12.2573 13.4685 12.0944 13.3056C11.9315 13.1427 11.85 12.9408 11.85 12.7V11.85C11.85 11.6092 11.9315 11.4073 12.0944 11.2444C12.2573 11.0815 12.4592 11 12.7 11H18.65C18.8908 11 19.0927 11.0815 19.2556 11.2444C19.4185 11.4073 19.5 11.6092 19.5 11.85V12.7C19.5 12.9408 19.4185 13.1427 19.2556 13.3056C19.0927 13.4685 18.8908 13.55 18.65 13.55H18.5225L19.925 16.78C19.6558 16.9217 19.4008 17.0704 19.16 17.2263C18.9192 17.3821 18.6925 17.5592 18.48 17.7575L16.695 13.55H14.655L12.7 18.14V24.6H16.3125C16.3833 24.8975 16.479 25.1915 16.5994 25.4819C16.7198 25.7723 16.865 26.045 17.035 26.3H12.7ZM22.9 16.95C22.305 16.95 21.8021 16.7446 21.3912 16.3338C20.9804 15.9229 20.775 15.42 20.775 14.825C20.775 14.23 20.9804 13.7271 21.3912 13.3163C21.8021 12.9054 22.305 12.7 22.9 12.7V16.95C22.9 16.355 23.1054 15.8521 23.5162 15.4412C23.9271 15.0304 24.43 14.825 25.025 14.825C25.62 14.825 26.1229 15.0304 26.5338 15.4412C26.9446 15.8521 27.15 16.355 27.15 16.95H22.9Z" fill="white"/>
</g>
<defs>
<clipPath id="clip0_1_67">
<rect width="38" height="38" fill="white"/>
</clipPath>
</defs>
</svg>
