<svg width="23" height="22" viewBox="0 0 23 22" fill="none" xmlns="http://www.w3.org/2000/svg">
<path d="M19.348 14.388C19.26 14.2413 19.15 14.1093 19.018 13.992C18.886 13.8747 18.754 13.794 18.622 13.75L14.684 12.012C14.4933 11.9533 14.244 11.924 13.936 11.924C13.8187 11.924 13.7087 11.9423 13.606 11.979C13.5033 12.0157 13.3713 12.0853 13.21 12.188L11.098 13.574C10.4967 13.2367 9.95032 12.826 9.45899 12.342C8.96765 11.858 8.56799 11.3153 8.25999 10.714L9.64599 8.624C9.71932 8.46266 9.80732 8.21333 9.90999 7.876C9.90999 7.568 9.88065 7.326 9.82199 7.15L8.08399 3.124L8.06199 3.07999C7.81265 2.74266 7.60732 2.508 7.44599 2.376C7.29932 2.288 7.14165 2.22566 6.97299 2.189C6.80432 2.15233 6.65399 2.156 6.52199 2.19999C5.92065 2.288 5.35232 2.47133 4.81699 2.75C4.28165 3.02866 3.81232 3.39533 3.40899 3.85C3.00565 4.30466 2.70132 4.818 2.49599 5.39C2.30532 5.94733 2.20999 6.534 2.20999 7.15C2.20999 8.822 2.52532 10.428 3.15599 11.968C3.78665 13.508 4.69599 14.8683 5.88399 16.049C7.07199 17.2297 8.42865 18.1353 9.95399 18.766C11.4793 19.3967 13.0853 19.712 14.772 19.712C15.3587 19.712 15.938 19.6057 16.51 19.393C17.082 19.1803 17.6027 18.8907 18.072 18.524C18.5267 18.1133 18.8933 17.6403 19.172 17.105C19.4507 16.5697 19.634 16.0013 19.722 15.4C19.678 15.1653 19.6303 14.971 19.579 14.817C19.5277 14.663 19.4507 14.52 19.348 14.388ZM16.884 17.138C16.2387 17.6953 15.5053 17.974 14.684 17.974C13.232 17.974 11.846 17.7027 10.526 17.16C9.14732 16.6027 7.96665 15.8033 6.98399 14.762C5.95732 13.7353 5.16532 12.5583 4.60799 11.231C4.05065 9.90366 3.77199 8.514 3.77199 7.062C3.77199 6.71 3.85265 6.336 4.01399 5.94C4.16065 5.57333 4.35132 5.24333 4.58599 4.95C5.14332 4.39266 5.78865 4.026 6.52199 3.85L8.25999 7.7L6.89599 9.812C6.80799 9.9 6.73465 10.0613 6.67599 10.296L6.60999 10.538C6.60999 10.7287 6.61732 10.8607 6.63199 10.934C6.66132 11.0807 6.71265 11.1907 6.78599 11.264C7.65132 12.9653 8.90532 14.2193 10.548 15.026L10.768 15.114C10.988 15.1873 11.164 15.224 11.296 15.224C11.428 15.224 11.56 15.1983 11.692 15.147C11.824 15.0957 11.934 15.026 12.022 14.938L14.134 13.574L17.984 15.224C17.7493 16.0747 17.3827 16.7127 16.884 17.138Z" fill="white"/>
</svg>
