<svg width="36" height="36" viewBox="0 0 36 36" fill="none" xmlns="http://www.w3.org/2000/svg">
<g clip-path="url(#clip0_1_373)">
<path fill-rule="evenodd" clip-rule="evenodd" d="M34.2 0.709961H1.8C1.198 0.709961 0.709999 1.19996 0.709999 1.79996V34.2C0.709999 34.802 1.2 35.292 1.8 35.292H14.4C14.688 35.292 14.968 35.174 15.172 34.972C15.378 34.766 15.492 34.492 15.492 34.2V15.49H34.2C34.802 15.49 35.292 15 35.292 14.4V1.79996C35.292 1.19796 34.8 0.709961 34.2 0.709961ZM33.11 13.308H26.292V8.99996C26.292 8.39796 25.802 7.90796 25.2 7.90796C24.598 7.90796 24.11 8.39796 24.11 8.99996V13.308H15.492V8.99996C15.492 8.39796 15.002 7.90796 14.402 7.90796C13.8 7.90796 13.31 8.39796 13.31 8.99996V13.308H9C8.398 13.308 7.91 13.798 7.91 14.398C7.91 14.998 8.398 15.49 9 15.49H13.308V24.11H9C8.398 24.11 7.91 24.598 7.91 25.2C7.91 25.802 8.4 26.292 9 26.292H13.308V33.11H2.89V2.88996H33.108L33.11 13.308Z" fill="#424242"/>
</g>
<defs>
<clipPath id="clip0_1_373">
<rect width="36" height="36" fill="white"/>
</clipPath>
</defs>
</svg>
