<svg width="36" height="36" viewBox="0 0 36 36" fill="none" xmlns="http://www.w3.org/2000/svg">
<path d="M17.0293 4.86002C15.3733 4.86002 13.8373 5.28002 12.4213 6.12002C11.0053 6.96002 9.87734 8.08801 9.03734 9.50401C8.19734 10.92 7.77734 12.468 7.77734 14.148C7.77734 15.3 7.97534 16.392 8.37134 17.424C8.76734 18.456 9.32534 19.392 10.0453 20.232C10.1173 20.328 10.2133 20.406 10.3333 20.466C10.4533 20.526 10.5613 20.556 10.6573 20.556C10.8253 20.556 10.9573 20.538 11.0533 20.502C11.1493 20.466 11.2393 20.412 11.3233 20.34C11.4073 20.268 11.4793 20.172 11.5393 20.052C11.5993 19.932 11.6293 19.824 11.6293 19.728C11.6293 19.56 11.6173 19.44 11.5933 19.368C11.5693 19.296 11.5093 19.188 11.4133 19.044C10.8373 18.396 10.3873 17.652 10.0633 16.812C9.73934 15.972 9.57734 15.084 9.57734 14.148C9.57734 12.78 9.90734 11.526 10.5673 10.386C11.2273 9.24602 12.1273 8.34002 13.2673 7.66801C14.4073 6.99602 15.6613 6.66002 17.0293 6.66002C18.1573 6.66002 19.2253 6.90001 20.2333 7.38001C20.3533 7.45201 20.4793 7.48802 20.6113 7.48802C20.7433 7.48802 20.8453 7.47602 20.9173 7.45201C20.9893 7.42801 21.0733 7.38001 21.1693 7.30802L21.2413 7.27201L21.4573 6.98401C21.5053 6.84002 21.5293 6.72001 21.5293 6.62402C21.5293 6.45601 21.5173 6.32401 21.4933 6.22802C21.4693 6.13202 21.4033 6.03601 21.2953 5.94002C21.1873 5.84402 21.0853 5.78402 20.9893 5.76002C19.7413 5.16002 18.4213 4.86002 17.0293 4.86002ZM23.7613 8.35201C23.5693 8.35201 23.4193 8.39401 23.3113 8.47802C23.2033 8.56202 23.1073 8.68201 23.0233 8.83801C22.9393 8.99401 22.8973 9.15602 22.8973 9.32401C22.9453 9.54002 23.0053 9.69601 23.0773 9.79202C24.0133 11.064 24.4813 12.516 24.4813 14.148C24.4813 15.564 24.1273 16.86 23.4193 18.036C22.7113 19.212 21.7573 20.124 20.5573 20.772C20.3893 20.868 20.2693 20.976 20.1973 21.096C20.1013 21.288 20.0533 21.444 20.0533 21.564V23.184C20.0533 23.376 19.9993 23.526 19.8913 23.634C19.7833 23.742 19.6453 23.796 19.4773 23.796H17.9293V17.028L19.9453 15.3C20.0173 15.252 20.1013 15.156 20.1973 15.012C20.2453 14.916 20.2693 14.808 20.2693 14.688C20.2933 14.616 20.2813 14.508 20.2333 14.364V14.328C20.1853 14.184 20.1373 14.088 20.0893 14.04C20.0173 13.944 19.9273 13.866 19.8193 13.806C19.7113 13.746 19.5973 13.716 19.4773 13.716C19.3093 13.716 19.1833 13.728 19.0993 13.752C19.0153 13.776 18.9253 13.836 18.8293 13.932L17.0293 15.408L15.2293 13.932C15.0853 13.788 14.8993 13.716 14.6713 13.716C14.4433 13.716 14.2633 13.764 14.1313 13.86C13.9993 13.956 13.8973 14.094 13.8253 14.274C13.7533 14.454 13.7533 14.646 13.8253 14.85C13.8973 15.054 13.9933 15.204 14.1133 15.3L16.1293 17.028V23.796H14.4733C14.3053 23.796 14.1613 23.736 14.0413 23.616C13.9213 23.496 13.8613 23.352 13.8613 23.184V21.492C13.8613 21.324 13.8433 21.192 13.8073 21.096C13.7713 21 13.7173 20.922 13.6453 20.862C13.5733 20.802 13.4653 20.736 13.3213 20.664C13.1773 20.592 13.0633 20.556 12.9793 20.556C12.8953 20.556 12.7813 20.592 12.6373 20.664C12.4933 20.736 12.3973 20.79 12.3493 20.826C12.3013 20.862 12.2533 20.94 12.2053 21.06L12.1333 21.132C12.0853 21.276 12.0733 21.396 12.0973 21.492V23.184C12.0973 23.664 12.2173 24.096 12.4573 24.48C12.6973 24.864 13.0333 25.152 13.4653 25.344V26.784C13.4653 27.456 13.6993 28.026 14.1673 28.494C14.6353 28.962 15.1933 29.196 15.8413 29.196H18.2173C18.8653 29.196 19.4233 28.962 19.8913 28.494C20.3593 28.026 20.5933 27.456 20.5933 26.784V25.272C20.9773 25.08 21.2833 24.798 21.5113 24.426C21.7393 24.054 21.8533 23.64 21.8533 23.184V21.996C23.1973 21.156 24.2653 20.064 25.0573 18.72C25.8733 17.304 26.2813 15.78 26.2813 14.148C26.2813 12.156 25.6933 10.344 24.5173 8.71202C24.4453 8.59202 24.3313 8.49602 24.1753 8.42402C24.0193 8.35201 23.8813 8.32801 23.7613 8.35201ZM15.2293 25.596H16.8853H18.8293V26.784C18.8293 26.952 18.7753 27.096 18.6673 27.216C18.5593 27.336 18.4093 27.396 18.2173 27.396H15.8413C15.6733 27.396 15.5293 27.336 15.4093 27.216C15.2893 27.096 15.2293 26.952 15.2293 26.784V25.596Z" fill="white"/>
</svg>
