<svg width="32" height="32" viewBox="0 0 32 32" fill="none" xmlns="http://www.w3.org/2000/svg">
<rect width="32" height="32" rx="16" fill="white"/>
<path d="M8.70911 15C8.70911 14.8786 8.73034 14.7664 8.77282 14.6632C8.81529 14.5601 8.879 14.466 8.96395 14.3811C9.0489 14.2961 9.14295 14.2324 9.2461 14.1899C9.34925 14.1474 9.4615 14.1262 9.58286 14.1262H20.2863L16.5364 10.3764C16.4515 10.2914 16.3878 10.1974 16.3453 10.0942C16.3028 9.99107 16.2816 9.87882 16.2816 9.75746C16.2816 9.63611 16.3028 9.52385 16.3453 9.4207C16.3878 9.31755 16.4515 9.2235 16.5364 9.13856C16.6214 9.05361 16.7154 8.9899 16.8186 8.94742C16.9217 8.90495 17.034 8.88371 17.1554 8.88371C17.2646 8.88371 17.3738 8.90495 17.483 8.94742C17.5922 8.9899 17.6893 9.05361 17.7743 9.13856L23.0168 14.3811C23.0532 14.4175 23.0896 14.4599 23.126 14.5085C23.1624 14.557 23.1867 14.6116 23.1988 14.6723C23.2231 14.7208 23.2413 14.7724 23.2534 14.827C23.2655 14.8816 23.2716 14.9393 23.2716 15C23.2716 15.0606 23.2655 15.1183 23.2534 15.1729C23.2413 15.2275 23.2231 15.2791 23.1988 15.3276C23.1867 15.3883 23.1624 15.4429 23.126 15.4914C23.0896 15.54 23.0532 15.5825 23.0168 15.6189L17.7743 20.8614C17.7379 20.8978 17.6954 20.9342 17.6468 20.9706C17.5983 21.007 17.5437 21.0313 17.483 21.0434C17.4345 21.0677 17.3829 21.0859 17.3283 21.098C17.2737 21.1101 17.216 21.1162 17.1554 21.1162C17.0947 21.1162 17.037 21.1101 16.9824 21.098C16.9278 21.0859 16.8762 21.0677 16.8277 21.0434C16.767 21.0313 16.7124 21.007 16.6639 20.9706C16.6153 20.9342 16.5729 20.8978 16.5364 20.8614C16.5 20.825 16.4636 20.7825 16.4272 20.7339C16.3908 20.6854 16.3666 20.6308 16.3544 20.5701C16.3301 20.5216 16.3119 20.47 16.2998 20.4154C16.2877 20.3608 16.2816 20.3031 16.2816 20.2425C16.2816 20.1818 16.2877 20.1241 16.2998 20.0695C16.3119 20.0149 16.3301 19.9633 16.3544 19.9148C16.3666 19.8541 16.3908 19.7995 16.4272 19.751C16.4636 19.7024 16.5 19.66 16.5364 19.6236L20.2863 15.8737H9.58286C9.4615 15.8737 9.34925 15.8525 9.2461 15.81C9.14295 15.7675 9.0489 15.7038 8.96395 15.6189C8.879 15.5339 8.81529 15.4399 8.77282 15.3367C8.73034 15.2336 8.70911 15.1213 8.70911 15Z" fill="#3A5A4D"/>
<rect x="5.5" y="5.5" width="21" height="21" rx="10.5" stroke="white"/>
</svg>
