<svg width="70" height="83" viewBox="0 0 70 83" fill="none" xmlns="http://www.w3.org/2000/svg">
<path d="M69.4612 41.8583C69.4464 41.7695 69.43 41.6824 69.4152 41.5952C69.8029 40.5164 70.0007 39.3785 70 38.232C70 33.1575 61.9842 22.3313 61.0693 21.1132L60.046 19.7489L59.021 21.1132C58.4478 21.8776 55.0788 26.4162 52.6528 30.9482V27.9565C52.6528 21.4272 48.5463 13.5911 48.3673 13.2607L47.275 11.1994L46.1252 13.2262C45.0678 15.1672 44.176 17.1941 43.4593 19.2853C41.3502 9.70676 36.3403 2.02519 36.0677 1.61916L34.9984 0L33.9323 1.61916C33.6646 2.02354 28.6547 9.70676 26.5407 19.2853C25.8245 17.194 24.9326 15.167 23.8748 13.2262L22.725 11.1994L21.6327 13.2607C21.457 13.5895 17.3472 21.4272 17.3472 27.9565V30.9482C14.9162 26.4162 11.5522 21.8776 10.979 21.1132L9.95401 19.7489L8.93068 21.1132C8.01577 22.3313 2.75015e-06 33.1575 2.75015e-06 38.232C-0.000853273 39.3804 0.198134 40.5201 0.588045 41.6002C0.24966 43.5706 0.0793134 45.5663 0.0788469 47.5656C0.0717763 56.0398 3.15434 64.2255 8.74836 70.5873L3.9504 75.3889L5.75723 77.1971L10.5026 72.4481C17.0275 78.8949 25.8276 82.5098 34.9967 82.5098C44.1659 82.5098 52.9659 78.8949 59.4908 72.4481L64.2362 77.1971L66.043 75.3889L61.2451 70.5873C66.8388 64.2254 69.9214 56.0398 69.9146 47.5656C69.9181 45.654 69.7665 43.7453 69.4612 41.8583ZM44.3807 40.2144V27.9565C44.3807 23.8075 46.0348 19.4086 47.2076 16.8048C48.387 19.5122 50.0903 24.0902 50.0903 27.9565V39.6473L46.705 42.7706L44.3807 40.4495V40.2144ZM50.9724 42.3268C51.6826 43.8998 52.7882 45.2617 54.1813 46.2796C55.5744 47.2975 57.2073 47.9365 58.9208 48.1344V54.999L48.52 44.5903L50.9724 42.3268ZM28.1833 27.9565V27.3072C28.1833 17.9061 32.8466 8.61033 35.0016 4.81639C37.1551 8.61033 41.8167 17.9061 41.8167 27.3072V37.8786L35 31.0551L28.1833 37.8786V27.9565ZM19.9113 27.9565C19.9113 24.0902 21.6147 19.5122 22.794 16.8048C23.9668 19.4053 25.6209 23.8075 25.6209 27.9565V40.4495L23.2967 42.7772L19.9113 39.6539V27.9565ZM19.0292 42.3218L21.4816 44.5854L11.0808 54.994V48.1294C12.794 47.9313 14.4266 47.2921 15.8194 46.2743C17.2122 45.2564 18.3175 43.8947 19.0276 42.3218H19.0292ZM9.95073 24.0639C10.772 25.2277 11.999 27.003 13.2112 28.9526C16.8085 34.7405 17.3456 37.2506 17.3456 38.232C17.3441 39.9986 16.7118 41.7064 15.5628 43.0475C14.4137 44.3885 12.8235 45.2744 11.0792 45.5453V39.9235L14.7553 36.2446L12.9484 34.4364L9.80289 37.5843L6.65736 34.4364L4.85053 36.2446L8.52661 39.9235V45.4895C6.84668 45.1571 5.33382 44.2522 4.24572 42.9289C3.15762 41.6056 2.56158 39.9457 2.55914 38.232C2.55914 35.0989 7.22076 27.8989 9.95073 24.0639ZM2.63798 47.5705C2.63798 46.742 2.66974 45.9147 2.73325 45.0884C4.26782 46.7131 6.30471 47.7728 8.51511 48.0966V57.5683L5.41065 60.6685C3.57885 56.5426 2.63473 52.0772 2.63962 47.5623L2.63798 47.5705ZM34.9967 79.9538C26.506 79.9594 18.3557 76.6138 12.3144 70.6432L35 47.9371L57.6823 70.6366C51.641 76.6073 43.4907 79.9528 35 79.9472L34.9967 79.9538ZM59.4366 68.7758L35 44.3108L10.5601 68.7676C9.04595 67.0217 7.7217 65.1195 6.60973 63.0931L35 34.683L63.3903 63.0931C62.2783 65.1195 60.954 67.0217 59.4399 68.7676L59.4366 68.7758ZM64.5894 60.6685L61.4832 57.5584V48.0883C63.6936 47.7646 65.7305 46.7048 67.2651 45.0801C67.3275 45.9053 67.3593 46.7327 67.3604 47.5623C67.3653 52.0772 66.4212 56.5426 64.5894 60.6685ZM61.4832 45.4878V39.9218L65.1593 36.243L63.3525 34.4348L60.207 37.5827L57.0614 34.4348L55.2546 36.243L58.9307 39.9218V45.5453C57.1851 45.2759 55.5934 44.3906 54.443 43.0494C53.2926 41.7082 52.6594 39.9995 52.6577 38.232C52.6577 35.0989 57.3177 27.8989 60.0493 24.0639C60.8706 25.2244 62.091 26.9915 63.2999 28.9378C66.8988 34.7356 67.4409 37.249 67.4409 38.232C67.4385 39.9441 66.8437 41.6025 65.7576 42.9252C64.6715 44.248 63.1611 45.1535 61.4832 45.4878Z" fill="white"/>
</svg>
