<svg width="70" height="83" viewBox="0 0 70 83" fill="none" xmlns="http://www.w3.org/2000/svg">
<g clip-path="url(#clip0_1_536)">
<g clip-path="url(#clip1_1_536)">
<g clip-path="url(#clip2_1_536)">
<path d="M35 58.1938C33.5191 58.1938 32.0987 58.7821 31.0515 59.8293C30.0043 60.8766 29.416 62.2969 29.416 63.7778V71.6973H40.5709V63.7713C40.5692 62.2937 39.9819 60.8771 38.9377 59.8317C37.8936 58.7862 36.4776 58.1973 35 58.1938ZM38.0154 69.1287H31.9847V63.7713C31.9847 62.9715 32.3024 62.2046 32.8679 61.6391C33.4333 61.0736 34.2003 60.7559 35 60.7559C35.7998 60.7559 36.5667 61.0736 37.1322 61.6391C37.6977 62.2046 38.0154 62.9715 38.0154 63.7713V69.1287Z" fill="white"/>
<path d="M69.4571 41.8211C69.4423 41.7324 69.4259 41.6454 69.4111 41.5583C69.7987 40.4804 69.9965 39.3435 69.9958 38.1981C69.9958 33.1281 61.981 22.3115 61.0662 21.0945L60.0431 19.7313L59.0182 21.0945C58.445 21.8582 55.0765 26.3928 52.6508 30.9208V27.9317C52.6508 21.4082 48.5449 13.5791 48.3659 13.2489L47.2737 11.1894L46.124 13.2144C45.0668 15.1538 44.1751 17.1789 43.4585 19.2682C41.3497 9.69815 36.3405 2.02339 36.0679 1.61773L34.9987 0L33.9328 1.61773C33.6651 2.02175 28.6559 9.69815 26.5422 19.2682C25.826 17.1787 24.9343 15.1536 23.8766 13.2144L22.7269 11.1894L21.6348 13.2489C21.459 13.5774 17.3499 21.4082 17.3499 27.9317V30.9208C14.9192 26.3928 11.5556 21.8582 10.9824 21.0945L9.95758 19.7313L8.93439 21.0945C8.0196 22.3115 0.0048703 33.1281 0.0048703 38.1981C0.00401439 39.3454 0.202975 40.4842 0.592836 41.5633C0.254495 43.5319 0.0841706 45.5258 0.0837042 47.5234C0.0766346 55.9901 3.1588 64.1685 8.75209 70.5247L3.95475 75.322L5.76135 77.1286L10.5061 72.3838C17.0302 78.8249 25.8291 82.4366 34.997 82.4366C44.165 82.4366 52.9639 78.8249 59.4879 72.3838L64.2327 77.1286L66.0393 75.322L61.242 70.5247C66.835 64.1684 69.9171 55.99 69.9104 47.5234C69.9139 45.6135 69.7623 43.7065 69.4571 41.8211ZM44.3798 40.1787V27.9317C44.3798 23.7863 46.0337 19.3914 47.2064 16.7899C48.3856 19.4948 50.0887 24.0688 50.0887 27.9317V39.6121L46.7038 42.7326L44.3798 40.4136V40.1787ZM50.9706 42.2892C51.6808 43.8608 52.7862 45.2215 54.1791 46.2385C55.572 47.2555 57.2048 47.894 58.918 48.0916V54.9502L48.5186 44.5507L50.9706 42.2892ZM28.1845 27.9317V27.2829C28.1845 17.8902 32.8472 8.60269 35.002 4.81212C37.1551 8.60269 41.8161 17.8902 41.8161 27.2829V37.8449L35.0003 31.0275L28.1845 37.8449V27.9317ZM19.9136 27.9317C19.9136 24.0688 21.6167 19.4948 22.7959 16.7899C23.9686 19.3881 25.6224 23.7863 25.6224 27.9317V40.4136L23.2985 42.7392L19.9136 39.6187V27.9317ZM19.0316 42.2843L21.4837 44.5458L11.0842 54.9452V48.0867C12.7972 47.8888 14.4296 47.2502 15.8222 46.2332C17.2148 45.2163 18.32 43.8557 19.03 42.2843H19.0316ZM9.9543 24.0425C10.7755 25.2053 12.0023 26.9791 13.2144 28.9269C16.8112 34.7097 17.3482 37.2176 17.3482 38.1981C17.3468 39.9631 16.7145 41.6694 15.5656 43.0093C14.4167 44.3491 12.8267 45.2343 11.0826 45.5049V39.888L14.7582 36.2124L12.9516 34.4058L9.80649 37.551L6.66136 34.4058L4.85476 36.2124L8.53037 39.888V45.4491C6.85065 45.1171 5.33799 44.213 4.25003 42.8908C3.16208 41.5687 2.56612 39.9103 2.56367 38.1981C2.56367 35.0677 7.22469 27.8742 9.9543 24.0425ZM2.6425 47.5283C2.6425 46.7006 2.67426 45.8739 2.73776 45.0484C4.27213 46.6716 6.30876 47.7304 8.51887 48.0539V57.5172L5.41481 60.6147C3.58325 56.4924 2.63926 52.0309 2.64415 47.5201L2.6425 47.5283ZM34.997 79.8829C26.5075 79.8884 18.3582 76.5458 12.3177 70.5805L35.0003 47.8946L57.6797 70.5739C51.6392 76.5393 43.4899 79.8819 35.0003 79.8763L34.997 79.8829ZM59.4337 68.7148L35.0003 44.2715L10.5636 68.7066C9.04964 66.9622 7.72556 65.0617 6.61374 63.0371L35.0003 34.6522L63.3869 63.0371C62.2751 65.0617 60.951 66.9622 59.437 68.7066L59.4337 68.7148ZM64.5858 60.6147L61.4801 57.5073V48.0457C63.6902 47.7222 65.7269 46.6634 67.2612 45.0401C67.3236 45.8646 67.3554 46.6913 67.3565 47.5201C67.3614 52.0309 66.4174 56.4924 64.5858 60.6147ZM61.4801 45.4474V39.8864L65.1557 36.2108L63.3491 34.4042L60.204 37.5493L57.0589 34.4042L55.2523 36.2108L58.9279 39.8864V45.5049C57.1826 45.2357 55.591 44.3512 54.4408 43.0112C53.2906 41.6712 52.6574 39.964 52.6557 38.1981C52.6557 35.0677 57.3151 27.8742 60.0463 24.0425C60.8675 25.202 62.0878 26.9676 63.2966 28.9121C66.895 34.7048 67.437 37.2159 67.437 38.1981C67.4346 39.9086 66.8399 41.5655 65.7539 42.8871C64.6679 44.2088 63.1577 45.1135 61.4801 45.4474Z" fill="white"/>
</g>
</g>
</g>
<defs>
<clipPath id="clip0_1_536">
<rect width="70" height="82.44" fill="white"/>
</clipPath>
<clipPath id="clip1_1_536">
<rect width="70" height="82.44" fill="white"/>
</clipPath>
<clipPath id="clip2_1_536">
<rect width="69.9909" height="82.44" fill="white" transform="translate(0.00488281)"/>
</clipPath>
</defs>
</svg>
