<svg width="40" height="40" viewBox="0 0 40 40" fill="none" xmlns="http://www.w3.org/2000/svg">
<g clip-path="url(#clip0_1_269)">
<path fill-rule="evenodd" clip-rule="evenodd" d="M19.5 40C30.2695 40 39 31.2695 39 20.5C39 9.73046 30.2695 1 19.5 1C8.73046 1 0 9.73046 0 20.5C0 31.2695 8.73046 40 19.5 40ZM9.75 16.3628C9.75 13.2678 12.2681 10.75 15.3628 10.75H23.6372C26.7322 10.75 29.25 13.2681 29.25 16.3628V24.7131C29.25 27.8078 26.7322 30.3259 23.6372 30.3259H15.3628C12.2678 30.3259 9.75 27.8078 9.75 24.7131V16.3628ZM14.4254 20.5021C14.4254 17.725 16.7091 15.466 19.5155 15.466C22.3219 15.466 24.6055 17.725 24.6055 20.5021C24.6055 23.2788 22.3219 25.5379 19.5155 25.5379C16.7088 25.5379 14.4254 23.2788 14.4254 20.5021ZM16.2795 20.5021C16.2795 22.2563 17.731 23.6839 19.5155 23.6839C21.3 23.6839 22.7515 22.2566 22.7515 20.5021C22.7515 18.7476 21.2997 17.3203 19.5155 17.3203C17.731 17.3203 16.2795 18.7476 16.2795 20.5021ZM24.6967 16.4578C25.3581 16.4578 25.8943 15.9216 25.8943 15.2602C25.8943 14.5988 25.3581 14.0626 24.6967 14.0626C24.0352 14.0626 23.499 14.5988 23.499 15.2602C23.499 15.9216 24.0352 16.4578 24.6967 16.4578Z" fill="white"/>
</g>
<defs>
<clipPath id="clip0_1_269">
<rect width="40" height="40" fill="white"/>
</clipPath>
</defs>
</svg>
