<svg width="14" height="14" viewBox="0 0 14 14" fill="none" xmlns="http://www.w3.org/2000/svg">
<path d="M0.286556 12.2807C0.0955188 12.4717 0 12.7037 0 12.9766C0 13.2495 0.0955188 13.4883 0.286556 13.693C0.477594 13.8977 0.709568 14 0.982479 14C1.25539 14 1.48736 13.9045 1.6784 13.7134L0.286556 12.2807ZM13.9594 1.0231C13.9594 0.750185 13.8639 0.511388 13.6728 0.306705C13.4818 0.102022 13.2498 -0.000319154 12.9769 -0.000319154H3.97085C3.69794 -0.000319154 3.46597 0.102022 3.27493 0.306705C3.08389 0.511388 2.98837 0.750185 2.98837 1.0231C2.98837 1.29601 3.08389 1.52798 3.27493 1.71902C3.46597 1.91006 3.69794 2.00557 3.97085 2.00557H11.9535V9.98821C11.9535 10.2611 12.0558 10.4999 12.2605 10.7046C12.4652 10.9093 12.704 11.0116 12.9769 11.0116C13.2498 11.0116 13.4818 10.9093 13.6728 10.7046C13.8639 10.4999 13.9594 10.2611 13.9594 9.98821V1.0231ZM1.6784 13.7134L13.6728 1.71902L12.24 0.327173L0.286556 12.2807L1.6784 13.7134Z" fill="#3A5A4D"/>
</svg>
