<svg width="24" height="24" viewBox="0 0 24 24" fill="none" xmlns="http://www.w3.org/2000/svg">
<g clip-path="url(#clip0_1_436)">
<g clip-path="url(#clip1_1_436)">
<path d="M0.480469 23.3456L2.11223 17.4313C1.11249 15.6923 0.583891 13.7361 0.583891 11.7227C0.583891 5.43075 5.73198 0.305664 12.0522 0.305664C15.1204 0.305664 18.0047 1.49541 20.165 3.65756C22.3254 5.81971 23.5205 8.67969 23.5205 11.7341C23.5205 18.0261 18.3724 23.1512 12.0522 23.1512C10.1332 23.1512 8.24857 22.6707 6.57084 21.7669L0.480469 23.3456Z" fill="#0DC143"/>
<path fill-rule="evenodd" clip-rule="evenodd" d="M8.85146 6.02058C8.61849 5.4601 8.36434 5.44866 8.14197 5.43722C7.96194 5.42578 7.75015 5.42578 7.53836 5.42578C7.32657 5.42578 6.9877 5.50585 6.70179 5.84901C6.41587 6.19216 5.60046 7.01572 5.60046 8.68573C5.60046 10.3557 6.72296 11.9685 6.8818 12.1973C7.04065 12.4261 9.06326 15.9606 12.2613 17.3217C14.9193 18.4541 15.4594 18.2253 16.0417 18.1681C16.6136 18.111 17.9056 17.3446 18.1703 16.5553C18.435 15.7661 18.435 15.0798 18.3503 14.9425C18.2761 14.8052 18.0644 14.7138 17.7467 14.5422C17.429 14.3706 15.883 13.5471 15.5971 13.4326C15.3111 13.3183 15.0993 13.2611 14.8875 13.6043C14.6758 13.9474 14.0721 14.7138 13.8921 14.9311C13.7121 15.1599 13.5215 15.1827 13.2143 15.0112C12.8967 14.8396 11.8907 14.485 10.6835 13.3297C9.75158 12.4261 9.1162 11.3166 8.93618 10.9734C8.75616 10.6303 8.91501 10.4472 9.07385 10.2757C9.21151 10.127 9.39153 9.87535 9.55037 9.68086C9.70923 9.48642 9.76217 9.33771 9.86807 9.10895C9.97396 8.88018 9.92101 8.68573 9.84689 8.51415C9.74099 8.36546 9.12679 6.69545 8.85146 6.02058Z" fill="white"/>
</g>
</g>
<defs>
<clipPath id="clip0_1_436">
<rect width="24" height="24" fill="white"/>
</clipPath>
<clipPath id="clip1_1_436">
<rect width="23.04" height="24" fill="white" transform="translate(0.480469)"/>
</clipPath>
</defs>
</svg>
