<svg width="38" height="38" viewBox="0 0 38 38" fill="none" xmlns="http://www.w3.org/2000/svg">
<g clip-path="url(#clip0_1_73)">
<path d="M19 38C29.4934 38 38 29.4934 38 19C38 8.50659 29.4934 0 19 0C8.50659 0 0 8.50659 0 19C0 29.4934 8.50659 38 19 38Z" fill="#F4967E"/>
<path d="M10.3495 24.2614L12.0191 21.3696L11.4769 21.0565C10.9708 20.7644 10.6439 20.3427 10.4962 19.7915C10.3485 19.2403 10.4208 18.7117 10.713 18.2057C11.0051 17.6996 11.4268 17.3727 11.978 17.225C12.5292 17.0773 13.0578 17.1496 13.5638 17.4418L14.1061 17.7548L14.5235 17.0319L12.1739 15.6753L14.2608 12.0606L16.6104 13.4171L17.0278 12.6942L16.4856 12.3811C15.9796 12.0889 15.6527 11.6673 15.505 11.1161C15.3573 10.5649 15.4296 10.0363 15.7217 9.53024C16.0139 9.02418 16.4356 8.6973 16.9867 8.54962C17.5379 8.40193 18.0665 8.47418 18.5726 8.76635L19.1148 9.0794L19.5322 8.35645L20.6166 8.98254L20.1992 9.7055L20.7415 10.0185C21.2475 10.3107 21.5744 10.7324 21.7221 11.2836C21.8698 11.8347 21.7975 12.3633 21.5053 12.8694C21.2132 13.3755 20.7915 13.7023 20.2403 13.85C19.6892 13.9977 19.1605 13.9255 18.6545 13.6333L18.1123 13.3202L17.6949 14.0432L20.0445 15.3997L17.9575 19.0145L15.6079 17.658L15.1905 18.3809L15.7327 18.694C16.2388 18.9861 16.5656 19.4078 16.7133 19.959C16.861 20.5101 16.7888 21.0388 16.4966 21.5448C16.2044 22.0509 15.7827 22.3778 15.2316 22.5255C14.6804 22.6731 14.1518 22.6009 13.6457 22.3087L13.1035 21.9957L11.4339 24.8875L10.3495 24.2614ZM17.579 28.4354L19.2486 25.5435L18.7064 25.2305C18.2003 24.9383 17.8734 24.5166 17.7258 23.9655C17.5781 23.4143 17.6503 22.8857 17.9425 22.3796C18.2347 21.8736 18.6563 21.5467 19.2075 21.399C19.7587 21.2513 20.2873 21.3236 20.7934 21.6157L21.3356 21.9288L21.753 21.2058L19.4034 19.8493L21.4904 16.2345L23.84 17.5911L24.2574 16.8681L23.7151 16.5551C23.2091 16.2629 22.8822 15.8412 22.7345 15.2901C22.5868 14.7389 22.6591 14.2103 22.9513 13.7042C23.2434 13.1981 23.6651 12.8713 24.2163 12.7236C24.7674 12.5759 25.2961 12.6481 25.8021 12.9403L26.3443 13.2534L26.7617 12.5304L27.8462 13.1565L27.4288 13.8795L27.971 14.1925C28.477 14.4847 28.8039 14.9064 28.9516 15.4575C29.0993 16.0087 29.027 16.5373 28.7349 17.0434C28.4427 17.5494 28.021 17.8763 27.4698 18.024C26.9187 18.1717 26.3901 18.0994 25.884 17.8073L25.3418 17.4942L24.9244 18.2172L27.274 19.5737L25.187 23.1885L22.8374 21.8319L22.42 22.5549L22.9622 22.8679C23.4683 23.1601 23.7952 23.5818 23.9428 24.1329C24.0905 24.6841 24.0183 25.2127 23.7261 25.7188C23.4339 26.2249 23.0123 26.5517 22.4611 26.6994C21.9099 26.8471 21.3813 26.7749 20.8752 26.4827L20.333 26.1696L18.6634 29.0614L17.579 28.4354Z" fill="white"/>
</g>
<defs>
<clipPath id="clip0_1_73">
<rect width="38" height="38" fill="white"/>
</clipPath>
</defs>
</svg>
