<svg width="55" height="73" viewBox="0 0 55 73" fill="none" xmlns="http://www.w3.org/2000/svg">
<g clip-path="url(#clip0_1_603)">
<g clip-path="url(#clip1_1_603)">
<path d="M26.5375 2.12489C12.7875 2.67489 1.5125 13.2624 0.1375 26.8749C-0.1375 29.6249 0 32.2374 0.55 34.7124C0.55 34.7124 0.55 34.9874 0.6875 35.5374C1.1 37.4624 1.7875 39.2499 2.475 41.0374C5.225 47.4999 11.55 58.4999 25.85 70.3249C26.675 71.0124 28.05 71.0124 28.875 70.3249C43.175 58.4999 49.5 47.6374 52.3875 41.0374C53.2125 39.2499 53.7625 37.4624 54.175 35.5374C54.3125 34.9874 54.3125 34.7124 54.3125 34.7124C54.5875 33.0624 54.8625 31.2749 54.8625 29.4874C55 14.0874 42.2125 1.57489 26.5375 2.12489ZM27.5 43.2374C20.075 43.2374 14.1625 37.3249 14.1625 29.8999C14.1625 22.4749 20.075 16.5624 27.5 16.5624C34.925 16.5624 40.8375 22.4749 40.8375 29.8999C40.8375 37.3249 34.925 43.2374 27.5 43.2374Z" fill="white"/>
</g>
</g>
<defs>
<clipPath id="clip0_1_603">
<rect width="55" height="73" fill="white"/>
</clipPath>
<clipPath id="clip1_1_603">
<rect width="55" height="68.75" fill="white" transform="translate(0 2.125)"/>
</clipPath>
</defs>
</svg>
