<svg width="38" height="38" viewBox="0 0 38 38" fill="none" xmlns="http://www.w3.org/2000/svg">
<g clip-path="url(#clip0_1_79)">
<path d="M19 38C29.4934 38 38 29.4934 38 19C38 8.50659 29.4934 0 19 0C8.50659 0 0 8.50659 0 19C0 29.4934 8.50659 38 19 38Z" fill="#53AAF2"/>
<path d="M18.5 23.375C18.7408 23.375 18.9427 23.2911 19.1056 23.1234C19.2685 22.9557 19.35 22.7479 19.35 22.5C19.35 22.2521 19.2685 22.0443 19.1056 21.8766C18.9427 21.7089 18.7408 21.625 18.5 21.625C18.2592 21.625 18.0573 21.7089 17.8944 21.8766C17.7315 22.0443 17.65 22.2521 17.65 22.5C17.65 22.7479 17.7315 22.9557 17.8944 23.1234C18.0573 23.2911 18.2592 23.375 18.5 23.375ZM18.5 19.875C18.7408 19.875 18.9427 19.7911 19.1056 19.6234C19.2685 19.4557 19.35 19.2479 19.35 19C19.35 18.7521 19.2685 18.5443 19.1056 18.3766C18.9427 18.2089 18.7408 18.125 18.5 18.125C18.2592 18.125 18.0573 18.2089 17.8944 18.3766C17.7315 18.5443 17.65 18.7521 17.65 19C17.65 19.2479 17.7315 19.4557 17.8944 19.6234C18.0573 19.7911 18.2592 19.875 18.5 19.875ZM18.5 16.375C18.7408 16.375 18.9427 16.2911 19.1056 16.1234C19.2685 15.9557 19.35 15.7479 19.35 15.5C19.35 15.2521 19.2685 15.0443 19.1056 14.8766C18.9427 14.7089 18.7408 14.625 18.5 14.625C18.2592 14.625 18.0573 14.7089 17.8944 14.8766C17.7315 15.0443 17.65 15.2521 17.65 15.5C17.65 15.7479 17.7315 15.9557 17.8944 16.1234C18.0573 16.2911 18.2592 16.375 18.5 16.375ZM25.3 26H11.7C11.2325 26 10.8323 25.8286 10.4994 25.4859C10.1665 25.1432 10 24.7312 10 24.25V20.75C10.4675 20.75 10.8677 20.5786 11.2006 20.2359C11.5335 19.8932 11.7 19.4812 11.7 19C11.7 18.5187 11.5335 18.1068 11.2006 17.7641C10.8677 17.4214 10.4675 17.25 10 17.25V13.75C10 13.2687 10.1665 12.8568 10.4994 12.5141C10.8323 12.1714 11.2325 12 11.7 12H25.3C25.7675 12 26.1677 12.1714 26.5006 12.5141C26.8335 12.8568 27 13.2687 27 13.75V17.25C26.5325 17.25 26.1323 17.4214 25.7994 17.7641C25.4665 18.1068 25.3 18.5187 25.3 19C25.3 19.4812 25.4665 19.8932 25.7994 20.2359C26.1323 20.5786 26.5325 20.75 27 20.75V24.25C27 24.7312 26.8335 25.1432 26.5006 25.4859C26.1677 25.8286 25.7675 26 25.3 26Z" fill="white"/>
</g>
<defs>
<clipPath id="clip0_1_79">
<rect width="38" height="38" fill="white"/>
</clipPath>
</defs>
</svg>
