<svg width="23" height="18" viewBox="0 0 23 18" fill="none" xmlns="http://www.w3.org/2000/svg">
<path d="M20.234 0C19.97 0 19.73 0.0420017 19.514 0.126001L0.919953 7.074C0.643953 7.17 0.421953 7.338 0.253953 7.578C0.0859531 7.818 0.00195312 8.076 0.00195312 8.352C0.00195312 8.628 0.0859531 8.883 0.253953 9.117C0.421953 9.351 0.643953 9.522 0.919953 9.63L6.22995 11.106C6.34995 11.13 6.45795 11.133 6.55395 11.115C6.64995 11.097 6.75795 11.052 6.87795 10.98L10.802 8.82L8.89395 10.62C8.71395 10.776 8.57895 10.959 8.48895 11.169C8.39895 11.379 8.35995 11.598 8.37195 11.826C8.38395 12.054 8.45295 12.27 8.57895 12.474C8.70495 12.678 8.86395 12.84 9.05595 12.96L15.554 17.622C15.902 17.874 16.298 18 16.742 18C16.97 18 17.192 17.964 17.408 17.892C17.72 17.784 17.987 17.61 18.209 17.37C18.431 17.13 18.578 16.86 18.65 16.56L21.962 2.052C22.034 1.74 22.016 1.434 21.908 1.134C21.8 0.834002 21.62 0.588001 21.368 0.396C21.116 0.204 20.822 0.078001 20.486 0.0180016C20.426 0.00600052 20.342 0 20.234 0ZM20.216 1.512C20.228 1.512 20.246 1.518 20.27 1.53H20.306C20.342 1.566 20.366 1.596 20.378 1.62V1.71L17.048 16.236C17.024 16.308 17 16.356 16.976 16.38L16.94 16.416C16.892 16.44 16.853 16.458 16.823 16.47C16.793 16.482 16.742 16.488 16.67 16.488C16.634 16.488 16.58 16.464 16.508 16.416L10.01 11.7L16.382 5.706C16.526 5.562 16.601 5.403 16.607 5.229C16.613 5.055 16.553 4.887 16.427 4.725C16.301 4.563 16.142 4.464 15.95 4.428C15.722 4.404 15.536 4.434 15.392 4.518L6.28395 9.558L1.85595 8.352L20.126 1.53L20.216 1.512Z" fill="white"/>
</svg>
