<svg width="100" height="100" viewBox="0 0 100 100" fill="none" xmlns="http://www.w3.org/2000/svg">
<path d="M50 99C43.5652 99 37.1935 97.7326 31.2485 95.2701C25.3036 92.8076 19.9018 89.1983 15.3518 84.6482C10.8017 80.0982 7.19238 74.6964 4.7299 68.7515C2.26742 62.8065 0.999999 56.4348 1 50C1 43.5652 2.26742 37.1935 4.72991 31.2485C7.19239 25.3036 10.8017 19.9018 15.3518 15.3518C19.9018 10.8017 25.3036 7.19238 31.2485 4.7299C37.1935 2.26742 43.5652 0.999999 50 1C56.4348 1 62.8065 2.26742 68.7515 4.72991C74.6965 7.19239 80.0982 10.8017 84.6482 15.3518C89.1983 19.9018 92.8076 25.3036 95.2701 31.2485C97.7326 37.1935 99 43.5652 99 50C99 56.4348 97.7326 62.8065 95.2701 68.7515C92.8076 74.6965 89.1983 80.0982 84.6482 84.6482C80.0981 89.1983 74.6964 92.8076 68.7515 95.2701C62.8065 97.7326 56.4348 99 50 99Z" stroke="white" stroke-width="2"/>
</svg>
