<svg width="40" height="40" viewBox="0 0 40 40" fill="none" xmlns="http://www.w3.org/2000/svg">
<rect width="40" height="40" rx="20" fill="white"/>
<g clip-path="url(#clip0_1_277)">
<path d="M27.6924 12.3976L11.705 18.6683C11.705 18.6683 10.9466 18.9252 11.0063 19.4029C11.066 19.8807 11.6811 20.1017 11.6811 20.1017L15.7004 21.4573L15.7063 21.4633V21.4573L25.3573 15.324C25.3573 15.324 25.9127 14.9835 25.8948 15.324C25.8948 15.324 25.9963 15.3837 25.6977 15.6644C25.3991 15.9451 18.1131 22.4905 18.1131 22.4905L18.1012 22.6159L24.6586 27.6445C25.7515 28.1222 26.1516 27.1249 26.1516 27.1249L29.0003 12.7739C29.0003 11.8183 27.6864 12.3976 27.6924 12.3976Z" fill="#3A5A4D"/>
<path d="M20.6088 24.5392L18.0109 26.9101C18.0109 26.9101 17.8079 27.0654 17.5869 26.9698L18.0826 22.5684" fill="#3A5A4D"/>
</g>
<defs>
<clipPath id="clip0_1_277">
<rect width="18" height="18" fill="white" transform="translate(11 11)"/>
</clipPath>
</defs>
</svg>
