<svg width="40" height="40" viewBox="0 0 40 40" fill="none" xmlns="http://www.w3.org/2000/svg">
<g clip-path="url(#clip0_1_379)">
<path d="M39.8442 20.9285C39.8442 20.1618 39.222 19.5374 38.4531 19.5374H37.0065V12.2018C37.0065 11.6707 36.9065 11.1574 36.7065 10.6751C36.502 10.1796 36.2109 9.73959 35.8331 9.36403C35.4576 8.98848 35.0198 8.69514 34.5287 8.49292C34.0398 8.2907 33.522 8.18848 32.9931 8.18848H7.02423C5.95312 8.18848 4.94423 8.60625 4.18423 9.36403C3.43757 10.1107 3.00868 11.1463 3.00868 12.2018V19.5374H1.56201C0.795343 19.5374 0.170898 20.1618 0.170898 20.9285C0.170898 21.6951 0.795343 22.3196 1.56201 22.3196H3.00868V32.2796C3.00868 33.0485 3.63312 33.6707 4.39979 33.6707C5.16645 33.6707 5.7909 33.0485 5.7909 32.2796V31.2329L6.42201 31.1218C7.0309 31.0151 8.34868 30.8329 10.3442 30.8329H29.6687C31.6665 30.8329 32.982 31.0129 33.5909 31.1218L34.222 31.2329V32.2796C34.222 33.0485 34.8442 33.6707 35.6131 33.6707C36.382 33.6707 37.0042 33.0485 37.0042 32.2796V22.3196H38.4509C39.2198 22.3196 39.8442 21.6951 39.8442 20.9285ZM5.7909 12.2018C5.7909 11.8796 5.92201 11.564 6.14868 11.3329L6.15534 11.3263C6.38868 11.0951 6.69757 10.9685 7.02423 10.9685H18.6153V20.9551H5.7909V12.2018ZM34.222 28.3729L33.3576 28.2596C32.302 28.1196 31.0953 28.0507 29.6687 28.0507H10.3465C8.93979 28.0507 7.69757 28.1196 6.65534 28.2596L5.7909 28.3729V23.7374H34.222V28.3729ZM34.222 20.9551H21.3998V10.9685L33.282 11.0285L33.9065 11.2863L34.222 12.2018V20.9551Z" fill="#424242"/>
</g>
<defs>
<clipPath id="clip0_1_379">
<rect width="40" height="40" fill="white"/>
</clipPath>
</defs>
</svg>
