<svg width="29" height="29" viewBox="0 0 29 29" fill="none" xmlns="http://www.w3.org/2000/svg">
<path d="M13 25C19.6274 25 25 19.6274 25 13C25 6.37258 19.6274 1 13 1C6.37258 1 1 6.37258 1 13C1 19.6274 6.37258 25 13 25Z" fill="#2CAFF9"/>
<path d="M7.80859 12.2987C11.5012 10.6726 16.2795 8.68994 16.9393 8.41548C18.6695 7.69732 19.2004 7.83481 18.9357 9.42556C18.7455 10.5689 18.1972 14.3538 17.7598 16.7098C17.5004 18.107 16.9182 18.2725 16.0032 17.668C15.5632 17.3772 13.3418 15.9065 12.8594 15.5611C12.4194 15.2465 11.8124 14.8678 12.5736 14.1222C12.8446 13.8567 14.6202 12.1591 16.0038 10.8381C16.185 10.6646 15.9573 10.3796 15.7481 10.5187C13.8832 11.7567 11.2978 13.4749 10.9687 13.6986C10.4716 14.0365 9.99409 14.1914 9.13719 13.945C8.48949 13.7589 7.85719 13.5367 7.61099 13.4521C6.66271 13.1264 6.88776 12.7043 7.80859 12.2987Z" fill="white"/>
</svg>
