<svg width="35" height="43" viewBox="0 0 35 43" fill="none" xmlns="http://www.w3.org/2000/svg">
<path d="M16.6021 0.010926C8 0.355012 0.946236 6.97867 0.0860215 15.4948C-0.0860215 17.2152 0 18.8496 0.344086 20.398C0.344086 20.398 0.344086 20.5701 0.430107 20.9141C0.688172 22.1184 1.11828 23.2367 1.54839 24.355C3.26882 28.398 7.2258 35.2797 16.172 42.6776C16.6882 43.1077 17.5484 43.1077 18.0645 42.6776C27.0107 35.2797 30.9677 28.484 32.7742 24.355C33.2903 23.2367 33.6344 22.1184 33.8925 20.9141C33.9785 20.5701 33.9785 20.398 33.9785 20.398C34.1505 19.3658 34.3226 18.2475 34.3226 17.1292C34.4086 7.49479 26.4086 -0.33316 16.6021 0.010926ZM17.2043 25.7313C12.5591 25.7313 8.86021 22.0324 8.86021 17.3873C8.86021 12.7421 12.5591 9.04318 17.2043 9.04318C21.8495 9.04318 25.5484 12.7421 25.5484 17.3873C25.5484 22.0324 21.8495 25.7313 17.2043 25.7313Z" fill="white"/>
</svg>
