<svg width="44" height="85" viewBox="0 0 44 85" fill="none" xmlns="http://www.w3.org/2000/svg">
<path fill-rule="evenodd" clip-rule="evenodd" d="M4.37377 67.3869C4.24636 68.144 5.90406 67.1768 5.77665 67.9331C5.68109 68.5659 5.81936 68.9751 6.05317 69.2852H6.32899C6.4354 69.9298 5.05421 69.1365 5.48999 70.1037C5.81936 70.0786 6.13789 70.029 6.45642 69.992C6.55265 70.2525 6.76477 70.4634 7.00943 70.6492C6.15888 70.587 5.29819 70.513 4.92612 70.9223C3.43851 70.9349 8.37979 73.2047 6.96674 73.2787C7.09415 74.7669 -0.248985 73.9366 0.00651685 75.5485C0.697118 75.772 1.50429 75.9081 2.52494 75.8216C2.33382 76.7267 3.00273 76.814 3.65131 76.9006V77.1737C2.66319 77.2973 0.941096 76.7267 1.12205 77.9796C3.34295 77.7065 3.05627 79.2326 2.71605 80.262C2.50324 80.8822 4.2572 79.0587 4.93696 79.1208C5.82952 79.2074 6.41439 80.8075 6.32899 81.2049C5.93591 81.7007 4.9688 80.7831 4.36291 81.4772C4.82038 82.6184 6.31883 81.8495 6.78579 82.9907C6.66922 83.2142 4.26735 82.4949 4.04438 82.6058C4.2782 82.594 6.11688 83.9831 5.4256 84.0075C5.43645 84.0949 4.52286 84.0697 4.53303 84.1563C4.13995 84.1445 4.45915 84.9504 4.1291 85H41.9821C42.9492 84.6647 41.982 83.0151 41.408 83.1025C41.0041 82.594 40.0478 83.2512 38.6029 83.1025C37.4657 82.7554 36.4877 82.2588 35.2977 81.9613C35.1492 81.8251 35.0001 81.7873 34.8409 81.7999C35.383 81.3537 36.0736 80.9444 36.8171 80.5226C38.4538 81.5268 39.9733 79.0217 42.5242 80.1377C42.8217 79.1334 41.9292 79.2696 41.6845 78.7856C42.5344 78.6124 43.2995 78.3645 43.3741 77.4342C42.8001 76.9006 42.2904 77.1981 41.7692 77.4586C41.9712 77.2729 42.184 77.0989 42.3541 76.9006C41.9183 76.6527 41.4507 76.5535 40.9621 76.5409C40.9302 76.4662 40.8875 76.4048 40.8448 76.3426C39.6866 76.6527 39.7503 75.772 38.8787 75.7964C38.2735 76.0199 37.6677 76.6897 37.1146 76.4913C37.0936 76.4048 37.0618 76.3056 37.0191 76.1938C36.9452 76.2056 36.8917 76.1938 36.828 76.1938C36.8598 76.1561 36.8706 76.0947 36.9025 76.0451C37.9015 75.9703 37.5504 74.6308 37.7632 74.4325C43.8526 73.8493 43.5971 72.8072 41.3653 72.1005C40.8448 71.9391 47.3062 70.7861 35.2448 70.0542C34.1286 69.9172 37.7422 68.8012 38.5284 68.4911C38.6876 67.9079 38.2627 67.8961 38.0607 67.66C38.9743 67.2012 39.8777 66.7171 40.834 66.3079C41.0678 65.5389 40.4409 65.6137 40.5581 64.9565C40.409 64.8943 40.2816 64.8692 40.1542 64.8574C39.7503 63.5296 41.5144 63.0212 42.1732 61.4463C40.3989 61.9296 38.7303 63.1204 37.0726 64.4473C36.2119 64.9565 35.383 65.4893 34.6599 65.2288C35.3614 64.733 36.5731 64.7204 36.6151 63.5918C37.7104 62.8725 38.7303 62.0783 39.6439 61.1732C38.9533 60.727 37.8696 61.1858 36.849 61.5825C38.6348 60.28 40.7066 59.0774 42.2369 57.3656C40.1651 56.1992 37.423 58.1841 34.7135 57.6379C34.9574 57.5017 35.2448 57.4025 35.6168 57.39C35.6487 57.316 35.6589 57.2538 35.6589 57.2042C36.2756 57.0925 36.7642 56.8571 36.9133 56.2865C36.626 55.5672 35.829 55.6537 35.011 55.8151C35.0855 55.7899 35.1492 55.7655 35.234 55.7529C34.6918 54.8478 35.3512 54.9714 35.6589 54.5125C36.3285 54.4386 36.9025 54.2772 37.2 53.8428C38.0397 53.6688 36.9344 53.2596 37.2 52.7637H38.0397C38.422 52.8503 38.5812 53.1486 39.1661 53.0369V51.9578H38.3264C36.7215 51.5981 35.2549 52.7763 34.1184 51.9578C35.5633 51.2755 38.0397 51.5982 38.3264 49.7872C36.8598 49.6132 35.606 50.8292 34.4369 50.4444C34.586 50.3326 34.7236 50.209 34.8619 50.0847C35.6907 49.762 36.3712 49.2906 37.2 48.9687C37.402 48.2241 36.6368 48.4225 36.6368 47.8896C37.774 47.5418 38.4748 46.7728 39.1661 45.9913C37.8798 44.1434 40.0905 43.7342 40.8448 41.9356C38.4538 42.593 36.2221 44.5155 34.0012 46.3636C32.8538 46.5997 32.6945 46.7232 31.3126 46.8224V46.351C33.9056 45.0366 36.3712 43.5977 38.3264 41.6628C37.2637 40.9682 36.4667 42.4566 35.234 42.469C34.1076 42.3946 32.4499 42.469 31.3018 43.2876V43.0147C31.3018 42.7419 31.5356 42.6923 31.5783 42.469C31.5464 42.469 31.5146 42.4566 31.4827 42.4442C32.0568 41.9976 38.1353 40.4968 38.4857 39.7898C38.199 39.7403 37.9225 39.7527 37.6568 39.8023C37.6039 39.6162 31.9504 40.4472 31.8548 40.3108C33.6826 40.0876 33.5762 39.517 35.5423 39.4302C35.9781 38.4751 39.8357 37.5697 39.9522 36.9247C40.792 36.9247 35.6169 36.3542 36.3495 36.2549C36.9452 35.089 46.1473 35.0518 36.9133 34.6301C35.8608 34.0719 37.0936 34.134 36.9133 33.0053C35.4468 32.7944 35.011 33.9231 33.5444 34.3572C33.5871 34.0347 34.0439 33.7495 33.5444 33.551C33.6508 32.6579 34.3624 32.3603 34.6707 31.6533C35.585 30.8223 36.849 30.3261 36.9133 28.6765C35.5525 27.9323 35.425 29.6811 34.3841 30.0285C34.3942 29.5571 34.1604 29.3339 33.8209 29.2099C32.8958 29.9416 32.8856 31.5541 31.8548 32.1867C31.4936 32.199 31.4719 32.5339 31.0151 32.4595C31.7166 31.6905 32.2269 30.7479 32.7047 29.7556C33.6718 28.8005 35.3403 28.5152 35.5105 26.7788C33.9802 27.0764 33.9585 27.2129 32.4288 27.3245V26.2454C32.418 25.8734 32.5664 25.6501 32.7155 25.4392C33.236 24.9183 32.7474 24.757 32.7155 24.0873C31.9504 23.8888 32.1523 24.6206 31.5891 24.633C30.8558 24.9183 30.643 25.6997 29.9097 25.985C29.9843 24.8066 28.8261 25.8734 28.7942 26.2578C28.4011 26.2454 28.1775 26.3819 27.9443 26.5307C29.3892 24.1493 30.3137 22.8841 31.5891 20.3042C30.0053 20.0314 30.0371 21.3337 29.0707 21.6562C29.007 21.4453 28.8369 21.3461 28.5075 21.3833C29.7715 20.4035 28.0928 20.5399 27.6678 19.7585C28.5923 19.1012 28.1456 18.0468 27.3913 17.5879C27.8908 17.5259 28.029 17.1166 27.9545 16.5088C27.9545 16.5088 27.7844 15.6778 27.3913 14.884C28.2947 14.5739 28.8369 13.9289 29.0809 12.9863C28.2202 12.7879 28.5394 13.7305 27.6787 13.532C27.5614 12.887 28.1883 12.949 27.9545 12.1801C27.6251 12.1429 27.1575 12.2297 27.1148 11.9072C27.1148 11.3739 27.88 11.5599 27.6787 10.8281C26.2541 10.1832 27.6678 9.36448 27.1148 8.39706C26.0521 7.86368 26.1585 9.78625 25.7126 8.94279C26.2758 7.93813 25.4252 7.24357 25.9884 6.22649C25.0857 6.18926 24.3307 5.87917 23.672 4.87451V3.79541C22.8112 3.08841 22.8323 1.53803 22.8323 0C20.8452 0.793806 21.058 3.7086 20.5795 5.95362C19.6761 5.07293 19.039 7.05752 18.0184 7.2187C18.1458 9.7118 19.2512 8.73194 19.8042 10.8281C20.0909 11.1878 20.08 11.8204 20.3674 12.1801C19.6659 12.701 19.2193 11.7708 18.688 12.453C17.9018 12.0312 18.7835 10.7537 17.4871 10.8281C17.9445 13.2964 17.5826 14.4375 18.9645 16.2484C18.1885 16.1367 18.6988 17.253 18.1248 17.3275C16.9876 16.9802 16.3925 16.8561 15.5318 16.2484C18.3478 18.8779 16.0848 19.3492 14.7565 19.374C13.9697 19.3864 10.272 17.6127 16.7219 23.0206C16.4142 23.0826 12.461 21.9043 12.333 22.1399C15.5318 23.8268 15.872 26.3074 12.6312 24.7198C12.6732 25.3896 15.0859 27.3245 14.4691 27.3617C13.0771 27.2873 11.7278 26.5679 10.5377 27.0889C10.2503 28.1803 10.9728 28.292 11.3767 28.7137C9.21948 30.9339 15.4254 31.8393 15.0222 32.2363C12.9178 33.2906 10.7071 31.9509 8.28423 32.782C8.62445 35.61 13.3536 34.2084 14.4583 36.3045C13.8633 37.3464 8.79456 36.0317 7.88099 36.7759C8.11412 37.6317 12.907 38.8472 12.9707 39.8643C12.1635 39.5666 6.50995 39.0333 7.47706 39.5542L11.0792 41.179H10.516C10.2401 42.0597 7.78475 41.6504 6.70107 42.0969C6.90303 43.3125 12.6949 42.9775 13.0663 43.7837L8.23137 44.4659C8.08227 45.4207 6.85017 45.3341 6.70107 46.2896C6.66922 46.9838 10.0802 47.8896 9.67629 48.2241C7.43438 47.8644 7.49807 49.8242 5.21346 49.5141C9.78268 51.7839 13.4702 50.7419 6.04231 52.3545C6.83932 52.6276 7.87014 52.9125 8.79455 53.0487C8.91112 53.099 10.1337 54.1529 10.2612 54.1899C10.2822 55.1823 8.94366 54.8478 8.58175 55.4798C8.0084 55.3311 8.02941 54.6613 7.45538 55.2075C6.46726 55.8151 8.35879 56.3983 7.45538 56.8319C6.79663 56.7454 6.29714 56.2983 5.77665 56.8319C6.41438 58.0723 8.96467 57.5513 8.49704 58.4572C7.95486 58.6177 2.73706 59.8085 2.73706 59.8085C2.46123 60.6892 8.16767 60.8262 7.08399 61.2598C3.35379 61.4337 3.72586 61.8178 7.2324 63.0582H7.17954C7.2324 63.2321 7.22157 63.3439 7.18972 63.4305H7.08399C7.07314 63.4675 1.9936 63.0464 1.62153 63.1204C1.39856 63.6288 5.40459 64.696 4.92612 64.9439C5.62756 64.9069 6.09518 65.0801 6.32899 65.4893C4.62858 65.7499 1.62153 64.7456 1.55783 66.5684C2.36568 66.9776 3.83159 66.7423 4.37377 67.3869Z" fill="#3A5A4D" fill-opacity="0.29"/>
</svg>
