<svg width="36" height="36" viewBox="0 0 36 36" fill="none" xmlns="http://www.w3.org/2000/svg">
<path d="M16.8127 4.104C16.7167 4.104 16.6447 4.116 16.5967 4.14C16.3327 4.164 16.0807 4.296 15.8407 4.536C14.0167 6.288 12.5527 7.98 11.4487 9.612C9.64866 12.252 8.74866 14.712 8.74866 16.992C8.74866 18.672 9.18666 20.208 10.0627 21.6C10.9387 22.992 12.0967 24.06 13.5367 24.804H9.10866C8.46066 24.804 7.85466 24.972 7.29066 25.308C6.72666 25.644 6.28266 26.094 5.95866 26.658C5.63466 27.222 5.47266 27.828 5.47266 28.476V29.196C5.47266 29.604 5.61066 29.952 5.88666 30.24C6.16266 30.528 6.51666 30.672 6.94866 30.672H15.3367C15.5527 30.672 15.7267 30.6 15.8587 30.456C15.9907 30.312 16.0567 30.138 16.0567 29.934C16.0567 29.73 15.9847 29.556 15.8407 29.412C15.6967 29.268 15.5287 29.196 15.3367 29.196H6.94866V28.476C6.94866 27.876 7.15866 27.36 7.57866 26.928C7.99866 26.496 8.50866 26.28 9.10866 26.28H25.9207C26.5207 26.28 27.0307 26.496 27.4507 26.928C27.8707 27.36 28.0807 27.876 28.0807 28.476V29.196H20.8087C20.5927 29.196 20.4127 29.262 20.2687 29.394C20.1247 29.526 20.0527 29.7 20.0527 29.916C20.0527 30.132 20.1247 30.312 20.2687 30.456C20.4127 30.6 20.5927 30.672 20.8087 30.672H28.0807C28.5127 30.672 28.8667 30.528 29.1427 30.24C29.4187 29.952 29.5567 29.604 29.5567 29.196V28.476C29.5567 27.828 29.3947 27.222 29.0707 26.658C28.7467 26.094 28.3027 25.644 27.7387 25.308C27.1747 24.972 26.5687 24.804 25.9207 24.804H20.1967C20.7007 24.396 21.0967 23.904 21.3847 23.328C21.6727 22.752 21.8167 22.128 21.8167 21.456C21.8167 20.016 21.1807 18.444 19.9087 16.74C19.5247 16.188 19.0927 15.66 18.6127 15.156L18.0007 14.58C17.8567 14.46 17.6947 14.4 17.5147 14.4C17.3347 14.4 17.1727 14.46 17.0287 14.58L16.3087 15.3C15.7567 15.924 15.2527 16.548 14.7967 17.172C14.6767 17.34 14.6347 17.52 14.6707 17.712C14.7067 17.904 14.8087 18.06 14.9767 18.18C15.1447 18.3 15.3247 18.342 15.5167 18.306C15.7087 18.27 15.8647 18.168 15.9847 18C16.4887 17.28 17.0047 16.692 17.5327 16.236L17.6407 16.344C18.0007 16.704 18.3607 17.124 18.7207 17.604C19.2007 18.228 19.5847 18.864 19.8727 19.512C20.2087 20.256 20.3767 20.904 20.3767 21.456C20.3767 22.248 20.0947 22.92 19.5307 23.472C18.9667 24.024 18.3007 24.3 17.5327 24.3H17.3527C16.6087 24.252 15.9787 23.952 15.4627 23.4C14.9467 22.848 14.6887 22.2 14.6887 21.456C14.6887 21.24 14.6167 21.066 14.4727 20.934C14.3287 20.802 14.1547 20.736 13.9507 20.736C13.7467 20.736 13.5727 20.808 13.4287 20.952C13.2847 21.096 13.2127 21.264 13.2127 21.456C13.2127 22.104 13.3327 22.668 13.5727 23.148C12.5407 22.476 11.7247 21.606 11.1247 20.538C10.5247 19.47 10.2247 18.288 10.2247 16.992C10.2247 15.096 11.0647 12.912 12.7447 10.44C13.8967 8.736 15.2647 7.116 16.8487 5.58L17.0647 10.116V10.08C17.0647 10.776 17.3287 11.364 17.8567 11.844C18.3847 12.324 18.9967 12.54 19.6927 12.492C20.3167 12.444 20.8267 12.174 21.2227 11.682C21.6187 11.19 21.8167 10.632 21.8167 10.008V9.792C23.8087 12.528 24.8047 14.964 24.8047 17.1C24.8047 18.372 24.5407 19.488 24.0127 20.448C23.9167 20.64 23.8987 20.832 23.9587 21.024C24.0187 21.216 24.1387 21.36 24.3187 21.456C24.4987 21.552 24.6847 21.564 24.8767 21.492C25.0687 21.42 25.2127 21.3 25.3087 21.132C25.9567 19.932 26.2807 18.588 26.2807 17.1C26.2807 15.732 25.9567 14.292 25.3087 12.78C24.7807 11.58 24.0127 10.296 23.0047 8.928V8.892C22.8127 8.652 22.5607 8.484 22.2487 8.388C21.9367 8.292 21.6427 8.292 21.3667 8.388C21.0907 8.484 20.8567 8.664 20.6647 8.928C20.4727 9.192 20.3767 9.48 20.3767 9.792V10.008C20.3767 10.248 20.2927 10.47 20.1247 10.674C19.9567 10.878 19.7767 10.992 19.5847 11.016C19.2487 11.04 18.9907 10.968 18.8107 10.8C18.6307 10.632 18.5407 10.392 18.5407 10.08L18.3247 5.508V5.544C18.3247 5.256 18.2347 4.986 18.0547 4.734C17.8747 4.482 17.6527 4.308 17.3887 4.212C17.2207 4.14 17.0287 4.104 16.8127 4.104ZM16.8487 5.544C16.8727 5.544 16.8727 5.544 16.8487 5.544V5.58C16.8727 5.58 16.8727 5.58 16.8487 5.58V5.544Z" fill="white"/>
</svg>
