<svg width="38" height="38" viewBox="0 0 38 38" fill="none" xmlns="http://www.w3.org/2000/svg">
<g clip-path="url(#clip0_1_61)">
<path d="M19 38C29.4934 38 38 29.4934 38 19C38 8.50659 29.4934 0 19 0C8.50659 0 0 8.50659 0 19C0 29.4934 8.50659 38 19 38Z" fill="#AE8AF7"/>
<path d="M15.5042 27C15.0913 27 14.7378 26.8531 14.4438 26.5594C14.1498 26.2656 14.0028 25.9125 14.0028 25.5C14.0028 25.0875 14.1498 24.7344 14.4438 24.4406C14.7378 24.1469 15.0913 24 15.5042 24C15.917 24 16.2705 24.1469 16.5645 24.4406C16.8585 24.7344 17.0055 25.0875 17.0055 25.5C17.0055 25.9125 16.8585 26.2656 16.5645 26.5594C16.2705 26.8531 15.917 27 15.5042 27ZM23.0111 27C22.5982 27 22.2448 26.8531 21.9507 26.5594C21.6567 26.2656 21.5097 25.9125 21.5097 25.5C21.5097 25.0875 21.6567 24.7344 21.9507 24.4406C22.2448 24.1469 22.5982 24 23.0111 24C23.424 24 23.7774 24.1469 24.0715 24.4406C24.3655 24.7344 24.5125 25.0875 24.5125 25.5C24.5125 25.9125 24.3655 26.2656 24.0715 26.5594C23.7774 26.8531 23.424 27 23.0111 27ZM14.1529 13.5H25.2256C25.5134 13.5 25.7324 13.6281 25.8825 13.8844C26.0326 14.1406 26.0389 14.4 25.9013 14.6625L23.2363 19.4625C23.0987 19.7125 22.9141 19.9063 22.6827 20.0438C22.4512 20.1813 22.1978 20.25 21.9226 20.25H16.3299L15.5042 21.75H24.5125V23.25H15.5042C14.9411 23.25 14.5157 23.0031 14.228 22.5094C13.9402 22.0156 13.9277 21.525 14.1904 21.0375L15.2039 19.2L12.5014 13.5H11V12H13.4398L14.1529 13.5Z" fill="white"/>
</g>
<defs>
<clipPath id="clip0_1_61">
<rect width="38" height="38" fill="white"/>
</clipPath>
</defs>
</svg>
