<svg width="12" height="14" viewBox="0 0 12 14" fill="none" xmlns="http://www.w3.org/2000/svg">
<path d="M5.78479 0C4.25057 0 2.77918 0.60993 1.69433 1.69561C0.609468 2.78129 0 4.25379 0 5.78917V13.9996H11.556V5.78236C11.5542 4.25051 10.9458 2.78182 9.86405 1.69801C8.78233 0.614188 7.31547 0.00360329 5.78479 0ZM8.90857 11.3366H2.661V5.78236C2.661 4.95325 2.99011 4.1581 3.57594 3.57184C4.16176 2.98557 4.95631 2.6562 5.78479 2.6562C6.61326 2.6562 7.40781 2.98557 7.99364 3.57184C8.57946 4.1581 8.90857 4.95325 8.90857 5.78236V11.3366Z" fill="white"/>
</svg>
